<?xml version="1.0" encoding="UTF-8"?>
<!DOCTYPE svg PUBLIC "-//W3C//DTD SVG 1.1//EN" "http://www.w3.org/Graphics/SVG/1.1/DTD/svg11.dtd">
<!-- Creator: CorelDRAW 2019 (64-Bit) -->
<svg xmlns="http://www.w3.org/2000/svg" xml:space="preserve" width="1683px" height="437px" version="1.1" shape-rendering="geometricPrecision" text-rendering="geometricPrecision" image-rendering="optimizeQuality" fill-rule="evenodd" clip-rule="evenodd"
viewBox="0 0 1701.59 441.69"
 xmlns:xlink="http://www.w3.org/1999/xlink">
 <g id="Ebene_x0020_1">
  <metadata id="CorelCorpID_0Corel-Layer"/>
  <polygon fill="#C24151" fill-rule="nonzero" points="0,441.69 1701.59,441.69 1701.59,0 0,0 "/>
  <line fill="none" fill-rule="nonzero" stroke="#FEFEFE" stroke-width="12.83" stroke-miterlimit="4" x1="78.53" y1="260" x2="1603.84" y2= "260" />
  <line fill="none" fill-rule="nonzero" stroke="#FEFEFE" stroke-width="4.28" stroke-miterlimit="4" x1="78.53" y1="271.6" x2="1603.84" y2= "271.6" />
  <path fill="#FEFEFE" fill-rule="nonzero" d="M656.41 287.1l0 78.57 14.66 0 0 -26.47c0,-1.19 0,-1.43 -0.37,-2.42 3.85,0.38 8.08,0.62 9.99,0.62 18.18,0 30.08,-10.34 30.08,-26.13 0,-16.09 -11.67,-25.37 -32.13,-25.37 -3.71,0 -10.7,0.38 -16.84,0.86l-5.39 0.34zm14.66 13.98c0,-1.23 0,-1.57 -0.37,-2.8 4.23,-0.1 5.9,-0.24 7.84,-0.24 11.29,0 17.43,4.95 17.43,14.09 0,8.66 -6.48,13.71 -17.67,13.71 -3.14,0 -3.03,0 -7.6,-0.11 0.37,-1.09 0.37,-1.46 0.37,-2.66l0 -21.99zm72.52 8.76c-17.33,0 -29.71,12.28 -29.71,29.23 0,16.6 11.8,28.27 28.75,28.27 16.85,0 28.88,-12.01 28.88,-28.75 0,-16.37 -12.03,-28.75 -27.92,-28.75zm-1.44 11.19c8.8,0 15.28,8.08 15.28,19.03 0,9.95 -5.42,16.57 -13.71,16.57 -9.14,0 -15.75,-8.29 -15.75,-19.61 0,-9.48 5.76,-15.99 14.18,-15.99zm55.93 74.1l0 -22c0,-4.09 0,-5.04 -0.24,-8.9 4.57,1.91 7.33,2.53 12.04,2.53 15.99,0 27.31,-11.94 27.31,-28.75 0,-16.03 -10.23,-27.93 -24.07,-27.93 -6.14,0 -11.8,1.95 -16.71,5.76 -0.48,-2.28 -1.95,-4.8 -3.62,-5.86l-12.14 3.72c3,3.61 3.58,6.75 3.58,19.37l0 62.06 13.85 0zm0 -63.39c0,-3.48 0,-4.1 -0.48,-7.1l0 -0.24c4.2,-2.28 7.23,-3.13 10.71,-3.13 8.42,0 14.66,7.57 14.66,17.8 0,10.7 -5.76,17.32 -15.04,17.32 -3.82,0 -7.91,-1.19 -10.33,-3.1 0.48,-2.9 0.48,-3.52 0.48,-6.99l0 -14.56zm130.02 -12.04l0 -10.2c0,-0.99 -2.38,-4.23 -5.28,-7.23 -6.48,-6.85 -12.14,-9.38 -21.04,-9.38 -18.04,0 -31.65,14.43 -31.65,33.56 0,23.46 18.04,40.65 42.59,40.65 27.18,0 44.16,-16.23 47.74,-45.83 1.1,0.47 1.33,0.47 2.8,0.47l8.15 0 0 -12.51 -36.08 0 0 12.51 6.76 0c2.28,0 2.76,0 4.67,-0.47 -2.77,22.61 -12.86,33.45 -31.14,33.45 -10.23,0 -18.41,-3.85 -24.45,-11.56 1.57,-0.48 1.95,-0.58 3.51,-1.67l33.42 -21.79zm-42.08 15.27c-1.57,-4.33 -2.04,-6.95 -2.04,-10.46 0,-11.53 7.09,-19.61 17.32,-19.61 6.38,0 11.53,3.27 15.28,9.75 -3.51,2.05 -4.95,2.9 -6.38,3.75l-18.41 12c-0.72,0.48 -1.68,1.23 -2.9,2.19l-2.87 2.38zm151.82 -48.21l-14.8 0 0 51.83c0,11.56 -2.9,15.52 -11.19,15.52 -3.51,0 -6.03,-0.58 -10.7,-2.53l-2.29 11.66c5.15,2.66 10.1,3.76 15.86,3.76 8.8,0 15.51,-3.01 19.37,-8.56 2.66,-3.86 3.75,-8.43 3.75,-16.71l0 -54.97zm15.99 39.55c7.85,-4.09 12.89,-5.62 17.94,-5.62 5.9,0 9.75,3.24 9.75,8.28l0 0.86c0,0.57 0.1,0.95 0.48,1.8 -5.18,0.48 -9.75,1.06 -13.95,1.91 -12.17,2.66 -18.17,8.42 -18.17,17.46 0,10.1 6.24,16.34 16.47,16.34 5.9,0 9.51,-1.44 16.98,-6.86 1.06,4.47 4.91,6.75 11.29,6.75 1.7,0 3.13,-0.13 5.9,-0.71l1.8 -8.56c-0.37,0.13 -0.61,0.13 -0.71,0.13 -1.81,0.11 -3.99,-0.47 -4.95,-1.56 -1.33,-1.33 -1.57,-2.77 -1.57,-9.52l0 -15.86c0,-7.46 -1.29,-12.27 -4.09,-15.17 -3.58,-3.72 -9.24,-5.76 -16.23,-5.76 -6.72,0 -13.71,1.91 -20.94,5.76l0 10.33zm27.69 27.8c-4.57,2.76 -7.6,3.85 -10.6,3.85 -4.68,0 -7.95,-3 -7.95,-7.33 0,-6.62 5.42,-9.86 19.03,-11.56 -0.48,1.94 -0.48,2.42 -0.48,4.7l0 10.34zm69.16 -42.46l-42.22 0 0 10.09 12.75 0c6.28,0 7.71,0 13.37,-0.34l0.1 0.24c-4.33,5.29 -5.42,6.62 -9.85,12.62l-19 25.98 1.44 5.43 45.21 0 2.05 -10.34 -15.14 0c-7.57,0 -8.9,0.11 -15.52,0.48l-0.13 -0.24c4.33,-5.32 5.18,-6.51 9.75,-12.75l18.99 -25.88 -1.8 -5.29zm52.92 0l-42.22 0 0 10.09 12.76 0c6.27,0 7.71,0 13.37,-0.34l0.1 0.24c-4.33,5.29 -5.42,6.62 -9.86,12.62l-18.99 25.98 1.43 5.43 45.22 0 2.05 -10.34 -15.15 0c-7.57,0 -8.9,0.11 -15.51,0.48l-0.14 -0.24c4.33,-5.32 5.19,-6.51 9.76,-12.75l18.99 -25.88 -1.81 -5.29zm101.76 -19.61c-8.05,-5.04 -15.62,-7.23 -25.24,-7.23 -23.59,0 -41.02,17.7 -41.02,41.74 0,23.7 17.19,41.02 40.78,41.02 9.62,0 17.91,-2.62 26.09,-8.28l-6 -11.32c-5.66,3.85 -11.56,5.79 -18.18,5.79 -15.51,0 -26.83,-11.8 -26.83,-28.16 0,-16.23 10.23,-27.32 25.27,-27.32 6.37,0 11.56,1.57 17.93,5.66l7.2 -11.9zm9.75 -9.99l0 83.62 13.81 0 0 -37.07c4.33,-5.15 8.08,-7.2 12.89,-7.2 6.48,0 9.52,4.09 9.52,12.99l0 31.28 13.81 0 0 -35.98c0,-11.66 -7.44,-19.85 -18.04,-19.85 -6.86,0 -13.23,3.14 -18.42,9.04l-0.34 -0.14c0.48,-7.94 0.58,-9.99 0.58,-18.65l0 -18.04 -13.81 0zm91.29 27.79c-17.32,0 -29.7,12.28 -29.7,29.23 0,16.6 11.8,28.27 28.74,28.27 16.85,0 28.89,-12.01 28.89,-28.75 0,-16.37 -12.04,-28.75 -27.93,-28.75zm-1.43 11.19c8.79,0 15.27,8.08 15.27,19.03 0,9.95 -5.42,16.57 -13.71,16.57 -9.13,0 -15.75,-8.29 -15.75,-19.61 0,-9.48 5.76,-15.99 14.19,-15.99zm79.28 -8.77c-4.09,-1.8 -6.14,-2.42 -8.42,-2.42 -6.04,0 -11.56,4.95 -15.55,13.85l-0.24 0.47 -0.48 -0.13c-0.1,-7.67 -1.19,-11.9 -3.95,-14.05l-12.14 3.72c3,3.61 3.58,6.75 3.58,19.37l0 32.6 13.84 0 0 -32.6 0.24 -0.24c4.47,-6.99 8.42,-10 12.99,-10 1.71,0 3,0.24 6.86,1.57l3.27 -12.14z"/>
  <path fill="#FEFEFE" fill-rule="nonzero" d="M256.74 213.75c-16.6,13.23 -26.44,17.63 -38.85,17.63 -11.17,0 -17.63,-5.73 -18.95,-17.11 46.64,-8.3 71.02,-25.93 71.02,-51.27 0,-19.46 -16.6,-32.17 -41.72,-32.17 -39.14,0 -69.99,33.72 -69.99,76.97 0,31.37 19.46,51.27 50.31,51.27 19.68,0 35.99,-6.68 54.94,-22.77l-6.76 -22.55zm-59.05 -18.14c2.79,-22.77 14.25,-38.34 28.5,-38.34 6.98,0 11.38,3.9 11.38,9.85 0,11.89 -15.05,22.84 -39.88,28.49zm215.78 -56.18c-17.63,-5.44 -32.91,-8.08 -48.7,-8.08 -44.07,0 -77.49,34.96 -77.49,81.08 0,29.6 14.03,46.94 37.83,46.94 16.38,0 26.73,-7.79 39.15,-29.82l1.03 0.29 0 1.54c0,17.63 8.52,26.96 25.11,26.96 5.22,0 9.11,-0.52 17.41,-2.06l7.2 -24.38c-0.73,0 -1.25,0.29 -1.76,0.29 -7.28,0.73 -11.46,-3.38 -11.46,-11.16 0,-3.38 0.59,-6.98 1.84,-16.6l9.84 -65zm-49.21 64.19c-9.84,14.84 -15.28,19.46 -23.58,19.46 -8.3,0 -13.22,-6.75 -13.22,-17.62 0,-10.07 3.38,-21.23 9.33,-29.53 5.73,-8.52 13.73,-12.71 24.6,-12.71 3.38,0 5.22,0.3 9.84,1.33 -1.76,4.11 -2.05,5.43 -2.57,9.54l-4.4 29.53zm166.05 -63.46c-14.47,-6.46 -25.63,-9.03 -39.88,-9.03 -27.99,0 -47.67,14.98 -47.67,36.28 0,10.06 5.21,19.9 14.25,27.17l13.22 10.65c6.46,5.15 9.55,9.33 9.55,13.23 0,5.65 -4.92,8.81 -13.15,8.81 -9.91,0 -22.03,-4.19 -31.88,-10.43l-7.56 29.6c13.73,8 29.53,12.12 47.15,12.12 28.79,0 51.05,-17.63 51.05,-40.4 0,-13.44 -5.44,-20.71 -27.18,-35.99 -8,-5.43 -11.38,-9.33 -11.67,-13.22 -0.23,-4.92 5.72,-8.3 15.27,-8.3 7.27,0 15.28,2.35 24.61,7.27l3.89 -27.76zm100.24 -8.81l-14.98 35.25c-8.01,18.14 -9.33,22.04 -15.06,39.15l-1.03 0c-2.05,-16.89 -2.86,-21.3 -6.75,-39.15l-7.72 -35.25 -38.92 8.59 26.73 107.75c-13.73,28.27 -23.87,37.82 -40.69,37.82 -3.89,0 -6.24,-0.22 -11.9,-1.54l4.41 29.31c6.46,0.73 9.33,1.02 13.73,1.02 22.26,0 38.34,-9.62 56.19,-33.42 7.79,-10.35 13.52,-20.71 27.47,-48.47l47.15 -92.47 -38.63 -8.59zm231.11 100.25l-1.76 0c-8.3,-0.22 -11.46,-3.08 -11.46,-10.57 0,-3.68 0.3,-6.25 2.13,-18.15l18.88 -126.18 -39.66 0 -6.17 41.72c-0.81,4.41 -1.03,7.49 -1.03,13.96 -8.08,-0.74 -11.68,-1.03 -15.06,-1.03 -40.91,0 -73.81,36.28 -73.81,81.38 0,28.79 13.95,46.34 36.8,46.34 17.55,0 27.98,-7.71 40.39,-31.07l1.32 0.3c-0.29,1.25 -0.29,2.57 -0.29,2.79 0,18.14 7.79,26.95 24.09,26.95 4.7,0 9.84,-0.51 18.44,-2.05l7.19 -24.39zm-50.75 -29.23c-8.3,14.47 -15.27,20.71 -23.35,20.71 -8.82,0 -13.44,-6.24 -13.44,-17.85 0,-10.13 3.37,-21.3 9.03,-29.6 6.02,-8.73 13,-12.41 23.87,-12.41 3.08,0 5.73,0.3 10.87,1.03 -1.25,1.54 -1.54,2.06 -1.84,4.19l-5.14 33.93zm141.45 -71.54c-38.85,0 -69.19,32.69 -69.19,74.11 0,33.2 20.49,54.13 52.88,54.13 38.34,0 68.38,-32.9 68.38,-74.62 0,-31.8 -20.93,-53.62 -52.07,-53.62zm-5.43 32.69c10.35,0 16.59,9.54 16.59,25.34 0,21.52 -10.13,38.12 -23.35,38.12 -10.58,0 -16.53,-8.52 -16.53,-23.36 0,-22.99 10.06,-40.1 23.29,-40.1zm173.13 50.23c-16.6,13.23 -26.44,17.63 -38.85,17.63 -11.17,0 -17.63,-5.73 -18.95,-17.11 46.64,-8.3 71.02,-25.93 71.02,-51.27 0,-19.46 -16.6,-32.17 -41.72,-32.17 -39.14,0 -69.99,33.72 -69.99,76.97 0,31.37 19.46,51.27 50.31,51.27 19.68,0 35.99,-6.68 54.94,-22.77l-6.76 -22.55zm-59.05 -18.14c2.79,-22.77 14.25,-38.34 28.5,-38.34 6.98,0 11.38,3.9 11.38,9.85 0,11.89 -15.05,22.84 -39.88,28.49zm184.41 -55.45c-14.46,-6.46 -25.63,-9.03 -39.88,-9.03 -27.98,0 -47.66,14.98 -47.66,36.28 0,10.06 5.21,19.9 14.24,27.17l13.22 10.65c6.47,5.15 9.55,9.33 9.55,13.23 0,5.65 -4.92,8.81 -13.14,8.81 -9.92,0 -22.04,-4.19 -31.88,-10.43l-7.57 29.6c13.74,8 29.53,12.12 47.16,12.12 28.79,0 51.04,-17.63 51.04,-40.4 0,-13.44 -5.43,-20.71 -27.17,-35.99 -8.01,-5.43 -11.39,-9.33 -11.68,-13.22 -0.22,-4.92 5.73,-8.3 15.28,-8.3 7.27,0 15.27,2.35 24.6,7.27l3.89 -27.76zm132.41 -5.14l-39.67 0 -17.92 119.94 39.66 0 17.93 -119.94zm-13.52 -55.75c-13.73,0 -24.09,10.36 -24.09,24.09 0,12.2 8.08,20.5 20.49,20.5 13.96,0 24.09,-10.14 24.09,-24.39 0,-11.9 -8.52,-20.2 -20.49,-20.2zm126.76 55.75l-21.23 0c-5.21,0 -6.24,0 -10.65,0.73 1.33,-4.4 1.55,-5.43 2.35,-10.35l3.9 -26.44 -18.66 0c-14.03,31.65 -20.49,37.09 -49.28,42.01l-3.31 23.06 12.12 0c5.22,0 6.24,0 10.65,-0.81 -1.32,4.41 -1.54,5.44 -2.35,10.36l-4.63 32.17c-1.32,8.81 -2.35,17.33 -2.35,20.2 0,20.2 15.06,32.61 38.86,32.61 16.08,0 29.82,-3.6 40.47,-10.87l-7.28 -23.8c-5.72,2.28 -9.32,3.09 -14.24,3.09 -10.87,0 -16.38,-4.93 -16.38,-14.55 0,-2.27 0.29,-6.17 1.1,-10.35l4.11 -28.5c0.81,-4.41 0.81,-5.66 0.81,-10.36 4.11,0.81 4.63,0.81 10.36,0.81l21.22 0 4.41 -29.01z"/>
  <path fill="#FEFEFE" fill-rule="nonzero" d="M71.58 284.91c12.68,0 22.96,-11.04 22.96,-24.67 0,-13.62 -10.28,-24.67 -22.96,-24.67 -12.68,0 -22.96,11.05 -22.96,24.67 0,13.63 10.28,24.67 22.96,24.67z"/>
  <path fill="#FEFEFE" fill-rule="nonzero" d="M1621.35 284.91c12.68,0 22.96,-11.04 22.96,-24.67 0,-13.62 -10.28,-24.67 -22.96,-24.67 -12.68,0 -22.96,11.05 -22.96,24.67 0,13.63 10.28,24.67 22.96,24.67z"/>
 </g>
</svg>
